<svg viewBox="0 0 128 128" xmlns="http://www.w3.org/2000/svg">
  <defs>
    <radialGradient id="t" cx="50%" cy="42%" r="72%">
      <stop offset="0%" stop-color="#3E9E7F"/>
      <stop offset="55%" stop-color="#2F8368"/>
      <stop offset="100%" stop-color="#1F5F4B"/>
    </radialGradient>
    <linearGradient id="s" x1="0" y1="0" x2="0" y2="1">
      <stop offset="0%" stop-color="#F6F1E4"/>
      <stop offset="100%" stop-color="#DFD6C1"/>
    </linearGradient>
  </defs>
  <rect x="6" y="6" width="116" height="116" rx="28" fill="url(#t)"/>
  <path d="M64 30c19.33 0 35 14.33 35 32 0 17.67-15.67 32-35 32-3.6 0-7.05-0.5-10.25-1.42L38.5 100.5c-1.6 0.7-3.3-1-2.55-2.6l5.1-11.02C34.4 81.06 29 71.9 29 62c0-17.67 15.67-32 35-32z"
    fill="none" stroke="url(#s)" stroke-width="7.5" stroke-linejoin="round" stroke-linecap="round"/>
  <path d="M82 74c0 6 2 8 8 8-6 0-8 2-8 8 0-6-2-8-8-8 6 0 8-2 8-8z" fill="url(#s)"/>
</svg>
